<?xml version="1.0" standalone="no"?><!DOCTYPE svg PUBLIC "-//W3C//DTD SVG 1.1//EN" "http://www.w3.org/Graphics/SVG/1.1/DTD/svg11.dtd"><svg t="1772285223007" class="icon" viewBox="0 0 1024 1024" version="1.1" xmlns="http://www.w3.org/2000/svg" p-id="4938" xmlns:xlink="http://www.w3.org/1999/xlink" width="200" height="200"><path d="M251.733333 960h62.933334V1024H251.733333v-64z m629.333334 0h62.933333V1024H881.066667v-64zM314.666667 896H377.6v64H314.666667V896z m503.466666 0h62.933334v64h-62.933334V896z m-503.466666-64H377.6V896H314.666667v-64z m503.466666 0h62.933334V896h-62.933334v-64zM377.6 768h62.933333v64H377.6V768z m0-64h62.933333V768H377.6v-64zM188.8 640H251.733333v64H188.8V640z m251.733333-576H503.466667V128h-62.933334V64z" fill="#457F2C" p-id="4939"></path><path d="M440.576 128H503.466667v64h-62.933334V128z m377.6 0h62.933333v64h-62.933333V128z" fill="#9ED455" p-id="4940"></path><path d="M818.133333 256h62.933334v64h-62.933334V256z" fill="#57A756" p-id="4941"></path><path d="M440.576 256H503.466667v64h-62.933334V256z" fill="#9ED455" p-id="4942"></path><path d="M818.133333 192h62.933334V256h-62.933334V192z" fill="#57A756" p-id="4943"></path><path d="M440.576 192H503.466667V256h-62.933334V192z" fill="#9ED455" p-id="4944"></path><path d="M818.133333 320h62.933334V384h-62.933334V320z" fill="#57A756" p-id="4945"></path><path d="M818.133333 384h62.933334v64h-62.933334V384z m0 64h62.933334V512h-62.933334v-64z m0 64h62.933334v64h-62.933334V512z" fill="#9ED455" p-id="4946"></path><path d="M818.133333 576h62.933334V640h-62.933334v-64z m0 64h62.933334v64h-62.933334V640z" fill="#57A756" p-id="4947"></path><path d="M881.066667 384h62.933333v64H881.066667V384z" fill="#9ED455" p-id="4948"></path><path d="M881.066667 448h62.933333V512H881.066667v-64z m0 64h62.933333v64H881.066667V512z m0 64h62.933333V640H881.066667v-64z" fill="#57A756" p-id="4949"></path><path d="M440.576 320H503.466667V384h-62.933334V320z m0 64H503.466667v64h-62.933334V384z m0 64H503.466667V512h-62.933334v-64z m0 64H503.466667v64h-62.933334V512z m0 64H503.466667V640h-62.933334v-64z m0 64H503.466667v64h-62.933334V640z" fill="#9ED455" p-id="4950"></path><path d="M440.576 704H503.466667V768h-62.933334v-64z m0 64H503.466667v64h-62.933334V768z" fill="#57A756" p-id="4951"></path><path d="M440.576 832H503.466667V896h-62.933334v-64z" fill="#D09C4F" p-id="4952"></path><path d="M377.6 832h62.976V896H377.6v-64z" fill="#57A756" p-id="4953"></path><path d="M440.576 896H503.466667v64h-62.933334V896z" fill="#D09C4F" p-id="4954"></path><path d="M377.6 896h62.976v64H377.6V896z" fill="#57A756" p-id="4955"></path><path d="M440.576 960H503.466667V1024h-62.933334v-64z m-62.933333 0h62.933333V1024H377.6v-64z" fill="#D09C4F" p-id="4956"></path><path d="M314.666667 960H377.6V1024H314.666667v-64z m314.709333-640h62.933333V384H629.333333V320z" fill="#57A756" p-id="4957"></path><path d="M629.333333 384h62.890667v64H629.333333V384z m0 64h62.890667V512H629.333333v-64z m0 64h62.890667v64H629.333333V512z m0 64h62.890667V640H629.333333v-64z m0 64h62.890667v64H629.333333V640z" fill="#9ED455" p-id="4958"></path><path d="M629.333333 704h62.890667V768H629.333333v-64z" fill="#57A756" p-id="4959"></path><path d="M629.333333 768h62.890667v64H629.333333V768z m0 64h62.890667V896H629.333333v-64z" fill="#9ED455" p-id="4960"></path><path d="M629.333333 896h62.890667v64H629.333333V896z m0 64h62.890667V1024H629.333333v-64z" fill="#D09C4F" p-id="4961"></path><path d="M818.133333 64h62.933334V128h-62.933334V64z m-251.733333 192h62.933333v64h-62.933333V256z m-377.6 128H251.733333v64H188.8V384z m-125.866667 192V640H0v-64h62.933333z m251.733334 128H377.6V768H314.666667v-64zM125.866667 640h62.933333v64H125.866667V640z" fill="#457F2C" p-id="4962"></path><path d="M377.6 64h62.976V128H377.6V64z" fill="#9ED455" p-id="4963"></path><path d="M377.6 128h62.976v64H377.6V128z m377.6 0h62.976v64H755.2V128z" fill="#D5F86B" p-id="4964"></path><path d="M755.2 256h62.976v64H755.2V256zM377.6 256h62.976v64H377.6V256z m377.6-64h62.976V256H755.2V192z m-377.6 0h62.976V256H377.6V192z m377.6 128h62.976V384H755.2V320z" fill="#FFFFFF" p-id="4965"></path><path d="M755.2 384h62.933333v64H755.2V384z m0 64h62.933333V512H755.2v-64z m0 64h62.933333v64H755.2V512z m0 64h62.933333V640H755.2v-64z" fill="#9ED455" p-id="4966"></path><path d="M755.2 640h62.933333v64H755.2V640z" fill="#57A756" p-id="4967"></path><path d="M377.6 320h62.976V384H377.6V320z" fill="#FFFFFF" p-id="4968"></path><path d="M377.6 384h62.976v64H377.6V384z m0 64h62.976V512H377.6v-64z m0 64h62.976v64H377.6V512z m0 64h62.976V640H377.6v-64z" fill="#9ED455" p-id="4969"></path><path d="M377.6 640h62.976v64H377.6V640z" fill="#57A756" p-id="4970"></path><path d="M188.8 448H251.733333V512H188.8v-64z" fill="#D5F86B" p-id="4971"></path><path d="M188.8 512H251.733333v64H188.8V512z" fill="#9ED455" p-id="4972"></path><path d="M188.8 576H251.733333V640H188.8v-64z" fill="#000000" p-id="4973"></path><path d="M566.357333 320h62.933334V384h-62.933334V320z m0 64h62.933334v64h-62.933334V384z m0 64h62.933334V512h-62.933334v-64z m0 64h62.933334v64h-62.933334V512z m0 64h62.933334V640h-62.933334v-64z m0 64h62.933334v64h-62.933334V640z m0 64h62.933334V768h-62.933334v-64z" fill="#9ED455" p-id="4974"></path><path d="M566.357333 768h62.933334v64h-62.933334V768z m0 64h62.933334V896h-62.933334v-64z m0 64h62.933334v64h-62.933334V896z m0 64h62.933334V1024h-62.933334v-64z" fill="#D09C4F" p-id="4975"></path><path d="M755.2 64h62.933333V128H755.2V64z" fill="#9ED455" p-id="4976"></path><path d="M125.866667 384h62.933333v64H125.866667V384z m-62.933334 128v64H0V512h62.933333z m251.733334-192V384H251.733333V320h62.933334z m629.333333 0V384H881.066667V320h62.933333z m62.933333 256V640h-62.933333v-64H1006.933333zM944 640v64H881.066667V640h62.933333z m-125.866667 64V768H755.2v-64h62.933333z m0 64v64H755.2V768h62.933333z m62.933334-64V768h-62.933334v-64h62.933334zM1006.933333 512v64h-62.933333V512H1006.933333zM62.933333 384v64H0V384h62.933333z m251.733334-192V256H251.733333V192h62.933334z m251.733333 0V256H503.466667V192h62.933333z m125.866667 0V256H629.333333V192h62.933334z m251.733333 0V256H881.066667V192h62.933333zM1006.933333 384v64h-62.933333V384H1006.933333zM251.733333 704h62.933334V768H251.733333v-64zM62.933333 640H125.866667v64H62.933333V640z" fill="#457F2C" p-id="4977"></path><path d="M314.666667 64H377.6V128H314.666667V64z" fill="#9ED455" p-id="4978"></path><path d="M314.666667 128H377.6v64H314.666667V128z m377.6 0h62.976v64h-62.976V128z" fill="#D5F86B" p-id="4979"></path><path d="M692.309333 256H755.2v64h-62.976V256z m-377.6 0H377.6v64H314.666667V256z" fill="#000000" p-id="4980"></path><path d="M692.309333 192H755.2V256h-62.976V192z m-377.6 0H377.6V256H314.666667V192z" fill="#FFFFFF" p-id="4981"></path><path d="M692.266667 320H755.2V384h-62.933333V320z" fill="#000000" p-id="4982"></path><path d="M692.266667 384H755.2v64h-62.933333V384z m0 64H755.2V512h-62.933333v-64z m0 64H755.2v64h-62.933333V512z m0 64H755.2V640h-62.933333v-64z" fill="#9ED455" p-id="4983"></path><path d="M692.266667 640H755.2v64h-62.933333V640z m0 64H755.2V768h-62.933333v-64z m0 64H755.2v64h-62.933333V768z" fill="#57A756" p-id="4984"></path><path d="M692.266667 832H755.2V896h-62.933333v-64z" fill="#9ED455" p-id="4985"></path><path d="M755.2 832h62.933333V896H755.2v-64z" fill="#57A756" p-id="4986"></path><path d="M692.266667 896H755.2v64h-62.933333V896z" fill="#9ED455" p-id="4987"></path><path d="M755.2 896h62.933333v64H755.2V896z" fill="#57A756" p-id="4988"></path><path d="M692.266667 960H755.2V1024h-62.933333v-64z m62.933333 0h62.933333V1024H755.2v-64z" fill="#9ED455" p-id="4989"></path><path d="M818.133333 960h62.933334V1024h-62.933334v-64z" fill="#57A756" p-id="4990"></path><path d="M314.666667 320H377.6V384H314.666667V320z" fill="#000000" p-id="4991"></path><path d="M314.666667 384H377.6v64H314.666667V384z m0 64H377.6V512H314.666667v-64z m0 64H377.6v64H314.666667V512z" fill="#9ED455" p-id="4992"></path><path d="M314.666667 576H377.6V640H314.666667v-64z" fill="#000000" p-id="4993"></path><path d="M314.666667 640H377.6v64H314.666667V640z" fill="#57A756" p-id="4994"></path><path d="M125.866667 448h62.933333V512H125.866667v-64z" fill="#D5F86B" p-id="4995"></path><path d="M125.866667 512h62.933333v64H125.866667V512z" fill="#9ED455" p-id="4996"></path><path d="M125.866667 576h62.933333V640H125.866667v-64zM251.733333 384h62.933334v64H251.733333V384z" fill="#57A756" p-id="4997"></path><path d="M251.733333 448h62.933334V512H251.733333v-64z" fill="#D5F86B" p-id="4998"></path><path d="M251.733333 512h62.933334v64H251.733333V512z" fill="#9ED455" p-id="4999"></path><path d="M251.733333 576h62.933334V640H251.733333v-64z" fill="#000000" p-id="5000"></path><path d="M251.733333 640h62.933334v64H251.733333V640z" fill="#57A756" p-id="5001"></path><path d="M62.933333 448H125.866667V512H62.933333v-64z m0 64H125.866667v64H62.933333V512z" fill="#9ED455" p-id="5002"></path><path d="M62.933333 576H125.866667V640H62.933333v-64z" fill="#57A756" p-id="5003"></path><path d="M62.933333 384H125.866667v64H62.933333V384z" fill="#D5F86B" p-id="5004"></path><path d="M503.466667 320h62.890666V384H503.466667V320z m0 64h62.890666v64H503.466667V384z m0 64h62.890666V512H503.466667v-64z m0 64h62.890666v64H503.466667V512z m0 64h62.890666V640H503.466667v-64z m0 64h62.890666v64H503.466667V640z m0 64h62.890666V768H503.466667v-64z" fill="#9ED455" p-id="5005"></path><path d="M503.466667 768h62.890666v64H503.466667V768z m0 64h62.890666V896H503.466667v-64z m0 64h62.890666v64H503.466667V896z m0 64h62.890666V1024H503.466667v-64z" fill="#D09C4F" p-id="5006"></path><path d="M692.266667 64H755.2V128h-62.933333V64z" fill="#9ED455" p-id="5007"></path><path d="M62.933333 320H125.866667V384H62.933333V320z m0 128V512H0v-64h62.933333z m251.733334-192v64H251.733333V256h62.933334z m251.733333 0v64H503.466667V256h62.933333z m125.866667 0v64H629.333333V256h62.933334z m251.733333 0v64H881.066667V256h62.933333z m62.933333 192V512h-62.933333v-64H1006.933333z m-944-128V384H0V320h62.933333z m251.733334-192v64H251.733333V128h62.933334z m251.733333 0v64H503.466667V128h62.933333z m125.866667 0v64H629.333333V128h62.933334z m251.733333 0v64H881.066667V128h62.933333z" fill="#457F2C" p-id="5008"></path></svg>
