<?xml version="1.0" standalone="no"?><!DOCTYPE svg PUBLIC "-//W3C//DTD SVG 1.1//EN" "http://www.w3.org/Graphics/SVG/1.1/DTD/svg11.dtd"><svg t="1767785027273" class="icon" viewBox="0 0 1024 1024" version="1.1" xmlns="http://www.w3.org/2000/svg" p-id="9722" xmlns:xlink="http://www.w3.org/1999/xlink" width="200" height="200"><path d="M512 512m-430.08 0a430.08 430.08 0 1 0 860.16 0 430.08 430.08 0 1 0-860.16 0Z" fill="#4CD6DC" p-id="9723"></path><path d="M310.4768 293.80608a83.84512 83.84512 0 1 1 166.23616-15.38048v103.36256a501.1456 501.1456 0 0 1 69.18144-0.1024v-103.26016a83.84512 83.84512 0 1 1 166.25664 15.38048l-22.67136 121.50784c77.84448 33.9968 136.72448 93.04064 136.72448 167.23968v44.87168c0 61.0304-40.3456 112.10752-96.78848 146.59584C672.54272 808.79616 595.61984 829.44 512 829.44c-83.64032 0-160.5632-20.64384-217.45664-55.41888-56.40192-34.46784-96.74752-85.56544-96.74752-146.59584v-44.8512c0-73.80992 58.2656-132.64896 135.4752-166.7072l-22.81472-122.0608z m349.92128 137.46176l26.54208-142.19264a58.18368 58.18368 0 1 0-115.38432-10.67008v131.52256A458.67008 458.67008 0 0 0 512 406.15936c-20.3776 0.02048-40.71424 1.35168-60.90752 3.97312v-131.72736a58.18368 58.18368 0 1 0-115.42528 10.6496l26.64448 142.66368c-83.27168 30.94528-138.89536 86.89664-138.89536 150.81472v44.87168c0 97.42336 129.20832 176.37376 288.5632 176.37376 159.37536 0 288.60416-78.9504 288.60416-176.37376v-44.8512c0-64.26624-56.2176-120.46336-140.1856-151.30624z" fill="#633001" p-id="9724"></path><path d="M800.5632 627.42528c0 97.42336-129.20832 176.37376-288.5632 176.37376-159.37536 0-288.5632-78.9504-288.5632-176.37376v-44.8512h577.1264v44.8512z" fill="#FEDC90" p-id="9725"></path><path d="M335.6672 289.09568a58.18368 58.18368 0 1 1 115.4048-10.67008v131.72736a468.6848 468.6848 0 0 1 120.48384-0.18432v-131.52256a58.18368 58.18368 0 1 1 115.38432 10.6496l-26.54208 142.19264c83.968 30.8224 140.1856 87.04 140.1856 151.26528 0 97.40288-129.2288 176.35328-288.58368 176.35328-159.37536 0-288.5632-78.9504-288.5632-176.37376 0-63.8976 55.6032-119.84896 138.8544-150.77376l-26.624-142.6432v-0.02048z" fill="#D1884F" p-id="9726"></path><path d="M431.84128 569.7536c0 26.54208-14.35648 48.06656-32.09216 48.06656-17.69472 0-32.0512-21.52448-32.0512-48.10752 0-26.56256 14.35648-48.08704 32.0512-48.08704 17.73568 0 32.09216 21.52448 32.09216 48.08704v0.02048z m221.22496 0c0 26.54208-14.35648 48.06656-32.0512 48.06656-17.7152 0-32.07168-21.52448-32.07168-48.10752 0-26.56256 14.336-48.08704 32.07168-48.08704 17.69472 0 32.0512 21.52448 32.0512 48.08704v0.02048z" fill="#633001" p-id="9727"></path></svg>