<?xml version="1.0" standalone="no"?><!DOCTYPE svg PUBLIC "-//W3C//DTD SVG 1.1//EN" "http://www.w3.org/Graphics/SVG/1.1/DTD/svg11.dtd"><svg t="1767784890046" class="icon" viewBox="0 0 1024 1024" version="1.1" xmlns="http://www.w3.org/2000/svg" p-id="4963" xmlns:xlink="http://www.w3.org/1999/xlink" width="200" height="200"><path d="M512 512m-430.08 0a430.08 430.08 0 1 0 860.16 0 430.08 430.08 0 1 0-860.16 0Z" fill="#FFFFFF" p-id="4964"></path><path d="M394.0352 191.8976c-9.13408-1.29024-9.56416-1.7408-5.2224-2.17088 8.27392-1.31072 27.42272 0.43008 40.91904 3.4816 31.3344 7.39328 59.5968 26.54208 89.64096 60.04736l7.82336 9.15456 11.32544-1.7408c48.29184-7.84384 97.8944-1.7408 139.24352 17.408 11.30496 5.20192 29.16352 15.64672 31.3344 18.26816 0.86016 0.86016 2.17088 6.53312 3.05152 12.1856 3.03104 20.45952 1.7408 35.67616-4.79232 47.43168-3.4816 6.53312-3.4816 8.27392-1.31072 13.9264 1.7408 4.34176 6.9632 7.39328 11.75552 7.39328 10.4448 0 21.2992-16.52736 26.54208-39.60832l2.17088-9.13408 3.91168 4.36224c22.20032 24.7808 39.60832 59.1872 42.20928 83.5584l0.88064 6.51264-3.91168-5.65248c-6.53312-10.01472-12.63616-16.54784-20.8896-22.20032-14.80704-9.99424-30.47424-13.04576-71.80288-15.21664-37.41696-2.19136-58.75712-5.2224-79.64672-12.1856-35.67616-11.75552-53.94432-26.99264-96.1536-83.12832-18.71872-24.7808-30.47424-38.2976-42.20928-49.60256-25.68192-24.80128-51.36384-37.86752-84.86912-43.08992z" fill="#FF007A" p-id="4965"></path><path d="M718.2336 247.17312c0.86016-16.54784 3.05152-27.42272 7.82336-37.41696 1.7408-3.93216 3.4816-7.41376 3.93216-7.41376 0.4096 0-0.45056 3.072-1.7408 6.5536-3.4816 9.56416-3.93216 23.04-1.7408 38.27712 3.03104 19.57888 4.34176 22.20032 25.23136 43.52 9.58464 9.99424 20.8896 22.6304 25.23136 27.8528l7.41376 9.56416-7.41376-6.9632c-9.13408-8.704-30.02368-25.23136-34.816-27.42272-3.03104-1.7408-3.4816-1.7408-5.65248 0.45056-1.7408 1.7408-2.17088 4.34176-2.17088 16.95744-0.43008 19.59936-3.05152 31.76448-9.56416 44.40064-3.4816 6.51264-3.93216 5.2224-0.88064-2.19136 2.17088-5.65248 2.62144-8.25344 2.62144-26.97216 0-37.86752-4.36224-47.0016-30.90432-62.21824a324.93568 324.93568 0 0 0-24.3712-12.63616c-6.9632-3.03104-12.1856-5.65248-11.73504-5.65248 0.86016-0.86016 26.54208 6.53312 36.53632 10.87488 15.23712 6.10304 17.85856 6.5536 19.59936 6.10304 1.29024-1.31072 2.17088-4.79232 2.60096-15.6672z m-306.36032 64.83968c-18.26816-25.25184-30.02368-64.4096-27.40224-93.55264l0.86016-9.15456 4.36224 0.88064c7.82336 1.31072 21.2992 6.53312 27.8528 10.4448 17.408 10.4448 25.23136 24.7808 32.62464 60.47744 2.17088 10.4448 5.2224 22.6304 6.53312 26.54208 2.17088 6.5536 10.4448 21.77024 17.408 31.3344 4.79232 6.9632 1.7408 10.4448-9.13408 9.58464-16.54784-1.7408-38.72768-16.97792-53.10464-36.5568z m284.16 189.29664c-86.15936-34.816-116.61312-64.83968-116.61312-115.75296 0-7.39328 0.43008-13.49632 0.43008-13.49632 0.43008 0 3.4816 2.62144 7.39328 5.65248 17.408 13.9264 36.98688 20.02944 91.38176 27.8528 31.78496 4.79232 50.05312 8.27392 66.58048 13.9264 52.65408 17.408 85.2992 53.08416 93.12256 101.376 2.19136 13.9264 0.88064 40.48896-2.60096 54.41536-3.05152 10.87488-11.75552 30.90432-13.9264 31.3344-0.43008 0-1.31072-2.17088-1.31072-5.65248-0.86016-18.28864-9.99424-35.69664-25.23136-49.17248-18.28864-15.6672-41.7792-27.4432-99.2256-50.4832z m-60.90752 14.35648a103.07584 103.07584 0 0 0-4.36224-18.26816l-2.17088-6.5536 3.91168 4.8128c5.65248 6.51264 10.01472 14.336 13.9264 25.23136 3.05152 8.27392 3.05152 10.87488 3.05152 24.3712 0 13.04576-0.43008 16.09728-3.05152 23.49056a78.7456 78.7456 0 0 1-18.26816 29.16352c-15.6672 16.09728-36.12672 24.80128-65.29024 28.71296-5.2224 0.43008-20.00896 1.7408-33.05472 2.62144-32.64512 1.7408-54.39488 5.2224-73.99424 12.1856-2.60096 0.86016-5.2224 1.7408-5.65248 1.29024-0.86016-0.86016 12.61568-8.704 23.51104-13.9264 15.21664-7.3728 30.88384-11.30496 65.26976-17.408 16.95744-2.60096 34.36544-6.08256 38.7072-7.82336 43.08992-13.49632 64.43008-47.0016 57.46688-87.90016z" fill="#FF007A" p-id="4966"></path><path d="M674.7136 585.728c-11.30496-24.80128-13.9264-48.31232-7.82336-70.49216 0.86016-2.19136 1.7408-4.36224 2.60096-4.36224 0.88064 0 3.4816 1.31072 6.10304 3.05152 5.2224 3.4816 16.09728 9.56416 43.95008 24.80128 35.2256 19.1488 55.25504 33.93536 69.18144 50.91328 12.1856 14.80704 19.57888 31.76448 23.06048 52.65408 2.19136 11.75552 0.88064 40.0384-2.17088 51.79392-9.56416 36.98688-31.3344 66.56-63.0784 83.5584a60.47744 60.47744 0 0 1-9.15456 4.34176c-0.43008 0 1.31072-4.36224 3.91168-9.58464 10.4448-22.17984 11.75552-43.49952 3.91168-67.44064-4.77184-14.80704-14.78656-32.64512-34.816-62.6688-23.92064-34.816-29.57312-43.95008-35.67616-56.56576z m-324.1984 133.16096c32.21504-26.99264 71.80288-46.12096 108.35968-52.224 15.6672-2.60096 41.7792-1.7408 56.13568 2.17088 23.06048 6.10304 43.95008 19.1488 54.82496 35.24608 10.4448 15.6672 15.23712 29.16352 20.02944 59.1872 1.7408 11.75552 3.91168 23.94112 4.34176 26.54208 3.4816 15.6672 10.4448 27.8528 19.1488 34.38592 13.49632 10.01472 36.98688 10.4448 60.04736 1.7408 3.93216-1.31072 7.41376-2.62144 7.41376-2.17088 0.86016 0.86016-10.89536 8.704-18.71872 12.61568-10.87488 5.65248-19.57888 7.39328-31.3344 7.39328-20.8896 0-38.7072-10.87488-53.08416-32.64512-3.05152-4.34176-9.13408-16.95744-14.35648-28.71296-15.23712-35.24608-23.06048-45.69088-40.91904-57.4464-15.6672-9.99424-35.67616-12.1856-50.91328-4.77184-20.00896 9.56416-25.23136 35.2256-11.30496 50.91328 5.65248 6.51264 16.09728 11.73504 24.80128 13.04576a26.54208 26.54208 0 0 0 30.02368-26.54208c0-10.4448-3.91168-16.54784-14.35648-21.31968-13.9264-6.10304-29.16352 0.86016-28.71296 14.336 0 5.67296 2.60096 9.15456 8.25344 11.776 3.4816 1.7408 3.4816 1.7408 0.88064 1.29024-12.61568-2.60096-15.6672-18.26816-5.65248-28.2624 12.1856-12.20608 37.84704-6.9632 46.55104 9.99424 3.4816 6.9632 3.91168 20.8896 0.88064 29.5936-7.41376 19.1488-28.30336 29.14304-49.62304 23.49056-14.336-3.91168-20.43904-7.82336-37.84704-25.66144-30.47424-31.3344-42.20928-37.43744-85.72928-43.95008l-8.27392-1.31072 9.13408-8.704zM121.63072 18.71872c101.376 123.14624 257.61792 314.61376 265.44128 325.05856 6.53312 8.704 3.91168 16.97792-6.9632 23.06048-6.08256 3.4816-18.69824 6.9632-24.7808 6.9632-6.9632 0-15.2576-3.4816-20.8896-9.13408-3.93216-3.91168-20.8896-28.71296-59.1872-88.33024a5644.94336 5644.94336 0 0 0-54.41536-83.98848c-1.7408-0.88064-1.7408-0.88064 51.36384 94.0032 33.50528 59.5968 44.38016 80.91648 44.38016 83.53792 0 5.65248-1.7408 8.704-8.704 16.52736-11.75552 13.06624-16.97792 27.8528-20.8896 58.75712-4.34176 34.36544-16.09728 58.73664-49.60256 100.08576-19.57888 24.3712-22.6304 28.71296-27.42272 38.7072-6.08256 12.20608-7.82336 19.16928-8.704 34.816-0.86016 16.54784 0.88064 26.99264 5.67296 42.65984 4.34176 13.9264 9.13408 23.06048 20.8896 40.89856 9.99424 15.6672 16.09728 27.42272 16.09728 31.76448 0 3.4816 0.86016 3.4816 16.52736 0 37.41696-8.68352 68.32128-23.49056 85.2992-41.7792 10.4448-11.30496 13.04576-17.408 13.04576-33.05472 0-10.01472-0.43008-12.1856-3.05152-18.28864-4.34176-9.56416-12.61568-17.408-30.45376-29.57312-23.49056-16.11776-33.50528-29.16352-36.12672-46.57152-2.17088-14.78656 0.45056-24.80128 13.5168-52.224 13.47584-28.2624 16.95744-40.0384 19.12832-68.75136 1.31072-18.26816 3.4816-25.68192 8.704-31.3344 5.65248-6.08256 10.4448-8.27392 23.94112-10.01472 22.17984-3.03104 36.53632-8.704 47.86176-19.57888 10.01472-9.13408 14.35648-18.26816 14.78656-31.744l0.45056-10.0352-5.67296-6.08256C391.43424 311.58272 108.15488 0 106.82368 0c-0.4096 0 6.5536 8.27392 14.80704 18.71872z m133.59104 618.78272a17.96096 17.96096 0 0 0-5.65248-23.92064c-7.39328-4.79232-18.71872-2.62144-18.71872 3.91168 0 1.7408 0.88064 3.4816 3.4816 4.34176 3.91168 2.19136 4.36224 4.36224 1.31072 9.15456-3.05152 4.77184-3.05152 9.13408 0.86016 12.1856 6.10304 4.77184 14.37696 2.17088 18.71872-5.67296z m176.25088-228.88448c-10.4448 3.05152-20.48 14.35648-23.51104 25.68192-1.7408 6.9632-0.86016 19.57888 2.17088 23.49056 4.79232 6.08256 9.15456 7.82336 21.34016 7.82336 23.92064 0 44.38016-10.4448 46.55104-23.06048 2.17088-10.4448-6.9632-24.7808-19.57888-31.3344-6.53312-3.4816-20.02944-4.77184-26.97216-2.60096z m27.8528 21.74976c3.4816-5.2224 2.17088-10.8544-4.36224-14.78656-11.75552-7.39328-29.5936-1.31072-29.5936 10.01472 0 5.65248 9.13408 11.73504 17.83808 11.73504 5.65248 0 13.49632-3.4816 16.09728-6.9632z" fill="#FF007A" p-id="4967"></path></svg>